<svg width="28" height="24" viewBox="0 0 28 24" fill="none" xmlns="http://www.w3.org/2000/svg">
<path d="M27.4896 8.90793V6.8791C27.4896 6.4426 27.1357 6.08871 26.6992 6.08871H26.0347C25.3062 6.08871 24.5872 6.14963 23.883 6.26792C23.6694 3.66433 22.7474 1.75027 22.7037 1.6609C22.5524 1.35133 22.2177 1.17534 21.8771 1.22629C21.775 1.24152 19.5632 1.58629 17.2468 3.11959C16.3586 1.72545 14.536 0.134498 14.4592 0.147091C14.1768 -0.0545635 13.7959 -0.0482931 13.5203 0.162319C13.4788 0.135499 11.6771 1.76454 10.7942 3.15168C8.47232 1.61137 6.23056 1.24352 6.12713 1.22724C5.78431 1.17318 5.44655 1.34912 5.29411 1.66085C5.25043 1.75021 4.32852 3.66406 4.11485 6.2675C3.41135 6.14947 2.69304 6.08866 1.96536 6.08866H1.3008C0.86429 6.08866 0.510406 6.44255 0.510406 6.87905V8.90788C0.510406 12.043 1.7313 14.9905 3.94807 17.2073C4.68161 17.9408 5.49555 18.5645 6.36941 19.0719H5.12154C2.84 19.0719 0.98385 20.9281 0.98385 23.2096C0.98385 23.6461 1.33773 24 1.77424 24H10.6527C12.0276 24 13.2472 23.3254 14 22.2904C14.7529 23.3254 15.9725 24 17.3473 24H26.0878C26.5243 24 26.8782 23.6461 26.8782 23.2096C26.8782 20.9281 25.022 19.0719 22.7405 19.0719H21.6306C22.5045 18.5646 23.3184 17.9408 24.052 17.2073C26.2687 14.9905 27.4896 12.043 27.4896 8.90793ZM21.5198 2.92104C21.7945 3.64551 22.2231 5.00361 22.3241 6.63113C21.2214 6.96267 20.1696 7.44244 19.1931 8.06063C19.0228 6.83194 18.6397 5.62728 18.0552 4.48101C19.4245 3.56205 20.7747 3.1158 21.5198 2.92104ZM14.0138 1.82161C15.0734 2.75717 17.5555 5.34485 17.7069 9.1598C16.081 10.5377 14.7205 12.4676 14.0001 14.4639C13.2638 12.4634 11.9782 10.5961 10.2943 9.1607C10.3421 6.30354 12.2643 3.39106 14.0138 1.82161ZM6.47785 2.92521C7.23409 3.1267 8.60405 3.58465 9.98165 4.51052C9.38406 5.66422 8.99076 6.86066 8.81382 8.06485C7.83484 7.44418 6.77988 6.96283 5.67386 6.6305C5.77524 5.01341 6.20327 3.65289 6.47785 2.92521ZM2.09119 8.90793V7.67018C8.43143 7.74253 13.3007 12.9771 13.2097 19.0643H12.2475C6.64731 19.0643 2.09119 14.5082 2.09119 8.90793ZM10.6526 22.4193H2.68956C3.02327 21.395 3.98733 20.6527 5.12149 20.6527H13.0846C12.751 21.677 11.7869 22.4193 10.6526 22.4193ZM25.1724 22.4193H17.3473C16.2132 22.4193 15.2491 21.677 14.9154 20.6527H22.7405C23.8746 20.6527 24.8387 21.395 25.1724 22.4193ZM15.7525 19.0643H14.7904C14.7041 12.8677 19.7136 7.72877 25.9088 7.67018V8.90793C25.9088 14.5082 21.3527 19.0643 15.7525 19.0643Z" fill="#C0797E"/>
</svg>
