<svg width="19" height="20" viewBox="0 0 19 20" fill="none" xmlns="http://www.w3.org/2000/svg">
<path d="M18.0145 3.59554C17.8548 3.48633 17.6516 3.46297 17.4713 3.53308L9.51381 6.62914C9.28861 6.71676 9.14029 6.93359 9.14029 7.17519V15.0369C8.69916 14.7297 8.16377 14.5488 7.58662 14.5488C6.08374 14.5488 4.86108 15.7715 4.86108 17.2744C4.86108 18.7772 6.08378 20 7.58662 20C9.08947 20 10.3122 18.7773 10.3122 17.2745C10.3122 17.2706 10.3119 17.2668 10.3119 17.263C10.3119 17.2611 10.3122 17.2592 10.3122 17.2573V10.7705L17.0978 8.18906V11.4544C16.6567 11.1471 16.1213 10.9663 15.5441 10.9663C14.0413 10.9663 12.8186 12.189 12.8186 13.6919C12.8186 15.1947 14.0413 16.4174 15.5441 16.4174C17.047 16.4174 18.2697 15.1947 18.2697 13.6919V4.07918C18.2697 3.88574 18.1742 3.70476 18.0145 3.59554ZM7.58662 18.8281C6.72991 18.8281 6.03296 18.1311 6.03296 17.2745C6.03296 16.4178 6.72991 15.7208 7.58662 15.7208C8.44334 15.7208 9.14029 16.4178 9.14029 17.2745C9.14029 18.1311 8.44334 18.8281 7.58662 18.8281ZM10.3122 9.51668V7.57597L17.0978 4.93586V6.93523L10.3122 9.51668ZM15.5441 15.2455C14.6874 15.2455 13.9905 14.5485 13.9905 13.6919C13.9905 12.8352 14.6875 12.1382 15.5441 12.1382C16.4008 12.1382 17.0978 12.8352 17.0978 13.6919C17.0978 14.5485 16.4008 15.2455 15.5441 15.2455Z" fill="#8C001A"/>
<path d="M5.5793 9.7052C5.5793 9.70188 5.57907 9.6986 5.57907 9.69528C5.57907 9.6936 5.5793 9.69199 5.5793 9.69031V1.79336L6.00743 2.13059C6.87856 2.8168 7.21996 3.98191 6.85696 5.02977C6.75102 5.33555 6.91301 5.6693 7.21879 5.77524C7.52465 5.88102 7.85832 5.71914 7.96422 5.41336C8.49055 3.8941 7.99559 2.20492 6.73254 1.21004L5.35591 0.125665C5.17962 -0.0132415 4.93942 -0.039179 4.73751 0.0587897C4.53563 0.156798 4.40743 0.361485 4.40743 0.585938V7.61949C4.04161 7.39672 3.6129 7.26832 3.15486 7.26832C1.81798 7.26832 0.730408 8.36149 0.730408 9.70524C0.730408 11.049 1.81802 12.1422 3.15486 12.1422C4.49169 12.1422 5.5793 11.0489 5.5793 9.7052ZM3.15482 10.9703C2.46412 10.9703 1.90224 10.4028 1.90224 9.7052C1.90224 9.00762 2.46415 8.44016 3.15482 8.44016C3.84548 8.44016 4.40739 9.00762 4.40739 9.7052C4.40739 10.4028 3.84552 10.9703 3.15482 10.9703Z" fill="#8C001A"/>
</svg>
