<svg width="24" height="24" viewBox="0 0 24 24" fill="none" xmlns="http://www.w3.org/2000/svg">
<path d="M3.74523 24C3.18914 24 2.63305 23.8593 2.11716 23.5813C0.810685 22.8711 0 21.4138 0 19.7791V4.22197C0 2.5872 0.810685 1.13333 2.11716 0.419789C3.23269 -0.18655 4.53917 -0.132951 5.6145 0.560486L17.6609 8.33904C18.8367 9.09948 19.5402 10.4696 19.5402 12.0005C19.5402 13.5314 18.8367 14.9016 17.6609 15.6587L5.6145 23.4406C5.03496 23.8124 4.39177 24 3.74523 24ZM3.75193 1.67267C3.39684 1.67267 3.10539 1.78991 2.9178 1.89376C2.15066 2.3125 1.67497 3.20359 1.67497 4.22197V19.7824C1.67497 20.8008 2.15066 21.6952 2.9178 22.1106C3.25614 22.2949 3.93618 22.5294 4.70666 22.0336L16.753 14.255C17.4498 13.8061 17.8652 12.962 17.8652 12.0039C17.8652 11.0424 17.4498 10.2016 16.753 9.75272L4.70331 1.96746C4.36162 1.74636 4.03667 1.67267 3.75193 1.67267Z" fill="white"/>
<path d="M23.1681 20.6534C22.7059 20.6534 22.3307 20.2782 22.3307 19.8159V4.18508C22.3307 3.72279 22.7059 3.3476 23.1681 3.3476C23.6304 3.3476 24.0056 3.72279 24.0056 4.18508V19.8192C24.0056 20.2782 23.6304 20.6534 23.1681 20.6534Z" fill="white"/>
</svg>
