<svg width="24" height="24" viewBox="0 0 24 24" fill="none" xmlns="http://www.w3.org/2000/svg">
<path d="M19.9423 11.5499C18.7445 11.148 17.5211 11.1585 16.2024 11.5821C15.0757 11.944 14.0167 12.5492 12.8955 13.19C12.374 13.4882 11.8385 13.7942 11.2901 14.0771L11.018 13.7722C11.3322 13.3527 11.7584 12.6974 12.0551 11.9043C12.7712 9.99022 12.4096 8.22299 11.0093 6.79367C9.87664 5.6376 8.57038 5.05119 7.12668 5.05072H7.12499C4.25395 5.05072 1.91118 7.40511 1.81284 7.50533C1.55203 7.7712 1.54378 8.19435 1.79404 8.47016L3.50503 10.3559C3.74146 10.6166 4.13399 10.6623 4.42396 10.463C5.99319 9.38469 7.0596 9.08385 7.68411 9.54317C8.00718 9.78083 8.06127 10.1256 8.04974 10.373C8.02827 10.8345 7.7825 11.2243 7.56219 11.3567C6.93585 11.7331 5.81423 11.6503 5.43627 11.5868C5.23204 11.5516 5.02251 11.6084 4.86398 11.742C4.70545 11.8756 4.61395 12.0724 4.61395 12.2797V15.0646C4.61395 15.268 4.70202 15.4614 4.8554 15.5949C5.00882 15.7285 5.21249 15.789 5.41396 15.761C6.63154 15.5916 7.47426 15.9408 7.85127 16.7709C8.24891 17.6464 8.02264 18.913 7.36715 19.4815C6.91424 19.8742 6.3343 19.8497 5.64346 19.4086C5.40571 19.2568 5.18451 19.0689 4.98613 18.8503C2.78953 16.4304 0.620202 16.9506 0.529077 16.9739C0.217781 17.0535 0 17.3339 0 17.6552V20.7962C0 20.9998 0.0882186 21.1933 0.241828 21.3269C0.395437 21.4604 0.599483 21.5208 0.800999 21.4925C1.19648 21.437 1.60603 21.6162 2.01797 22.0255C2.01998 22.0275 2.02195 22.0295 2.02401 22.0314C4.0694 24.0153 6.23718 23.9613 6.57313 23.9398C8.25388 23.9345 9.60997 23.4071 10.6042 22.3722C11.9121 21.0107 12.2162 19.1372 12.2832 18.1785C13.6362 17.8142 15.451 16.6956 16.2562 16.1711C17.3587 15.4763 18.2326 15.4297 18.8538 16.0326C19.6484 16.8039 19.7962 18.369 19.3631 19.1209C19.0158 19.6497 18.4806 19.608 18.2655 19.5651C17.9213 19.4965 17.4888 19.2463 17.4027 18.7668C17.3639 18.5505 17.2263 18.3648 17.0306 18.2648C16.835 18.1648 16.6039 18.1621 16.4059 18.2573L13.916 19.4552C13.6215 19.5969 13.4634 19.923 13.5347 20.242C13.9812 22.2423 15.1121 23.147 15.9822 23.5538C16.6825 23.8812 17.4349 24 18.1371 24C19.2363 24 20.2124 23.709 20.6729 23.4713C21.3448 23.1245 22.2947 22.4831 23.0041 21.3973C23.8661 20.078 24.1628 18.4528 23.886 16.567C23.5076 13.989 22.1807 12.3011 19.9423 11.5499ZM21.8268 20.628C21.285 21.4573 20.5495 21.9523 20.0278 22.2216C19.5924 22.4464 17.8979 22.897 16.5777 22.2799C15.8649 21.9466 15.3545 21.3381 15.0559 20.4673L16.3447 19.8473C16.6984 20.4008 17.2852 20.8037 17.9908 20.9443C19.015 21.1483 19.997 20.7365 20.5536 19.8695C20.5584 19.8621 20.563 19.8546 20.5674 19.8471C20.9491 19.2006 21.0928 18.3034 20.9618 17.3856C20.8263 16.4374 20.4256 15.5985 19.8332 15.0235C19.3121 14.5178 18.6591 14.2368 17.9445 14.211C17.1799 14.1834 16.3581 14.4437 15.5014 14.9845C15.4985 14.9863 15.4957 14.9881 15.4929 14.99C13.5496 16.2563 12.1152 16.8559 11.5557 16.8884C11.1729 16.9106 10.8785 17.2354 10.8939 17.6185C10.8949 17.6418 10.9712 19.9601 9.59005 21.3978C8.86611 22.1514 7.84227 22.5335 6.54707 22.5335C6.52166 22.5335 6.50633 22.5338 6.48168 22.5365C6.37462 22.5445 4.67666 22.6432 3.00595 21.0247C2.50982 20.5328 1.96734 20.2276 1.40625 20.1198V18.3256C1.97348 18.3827 2.92289 18.6697 3.9449 19.7955C4.22704 20.1064 4.54387 20.3749 4.88662 20.5938C6.11066 21.3755 7.35065 21.3573 8.28852 20.5439C9.42336 19.5597 9.79372 17.647 9.13166 16.1894C8.86096 15.5934 8.04636 14.3246 6.02024 14.3126V13.0472C6.66904 13.0639 7.57363 12.9906 8.28669 12.562C8.94449 12.1666 9.4138 11.3132 9.45458 10.4384C9.49288 9.61583 9.1513 8.87666 8.51746 8.41039C7.82999 7.90466 6.97799 7.79567 5.98499 8.08621C5.43341 8.24764 4.82681 8.53681 4.14234 8.96549L3.31378 8.05227C4.05253 7.45428 5.52459 6.45692 7.12499 6.45692H7.13277C8.18193 6.45903 9.14825 6.90341 10.0048 7.77777C11.0151 8.80892 11.2592 9.98595 10.7512 11.3761C10.3444 12.4892 9.58935 13.3011 9.58288 13.308C9.33139 13.5733 9.32516 13.987 9.56853 14.2598L10.5985 15.4142C10.8072 15.648 11.1454 15.7155 11.4279 15.5797C12.1871 15.2146 12.902 14.806 13.5934 14.4109C15.6686 13.2248 17.4608 12.2005 19.495 12.883C21.238 13.4679 22.1912 14.7034 22.4947 16.771C22.7201 18.3071 22.4954 19.6048 21.8268 20.628Z" fill="#C0797E"/>
<path d="M17.776 3.87117C18.843 3.87117 19.711 3.00286 19.711 1.93561C19.711 0.868359 18.843 0 17.776 0C16.7089 0 15.8409 0.868312 15.8409 1.93556C15.8409 3.00281 16.7089 3.87117 17.776 3.87117ZM17.776 1.40625C18.0676 1.40625 18.3048 1.64372 18.3048 1.93556C18.3048 2.22741 18.0675 2.46487 17.776 2.46487C17.4844 2.46487 17.2472 2.22745 17.2472 1.93556C17.2472 1.64367 17.4844 1.40625 17.776 1.40625Z" fill="#C0797E"/>
<path d="M23.8109 3.78692C23.678 3.64437 23.4918 3.56342 23.2968 3.56342H20.3885C20.0183 3.56342 19.7116 3.85034 19.6869 4.21962C19.6187 5.23896 18.7893 6.03743 17.7986 6.03743C16.808 6.03743 15.9786 5.23896 15.9104 4.21962C15.8857 3.85034 15.5789 3.56342 15.2088 3.56342H12.3012C12.1027 3.56342 11.9134 3.64732 11.7801 3.79442C11.6469 3.94151 11.5819 4.1381 11.6014 4.33563C11.6073 4.39549 11.7557 5.81857 12.5754 7.24938C13.3562 8.61199 14.899 10.2363 17.816 10.2363C20.8003 10.2363 22.3308 8.60745 23.0893 7.24109C23.8867 5.80432 23.994 4.37538 23.9982 4.31529C24.0118 4.12081 23.9439 3.92946 23.8109 3.78692ZM21.8381 6.59731C20.9996 8.07884 19.6464 8.83001 17.816 8.83001C16.0304 8.83001 14.6851 8.0757 13.8174 6.58793C13.4789 6.00748 13.2757 5.41803 13.1566 4.96967H14.6162C15.0012 6.39963 16.2926 7.44368 17.7986 7.44368C19.3046 7.44368 20.5961 6.39963 20.981 4.96967H22.4648C22.3583 5.41831 22.169 6.01259 21.8381 6.59731Z" fill="#C0797E"/>
</svg>
