<svg width="24" height="24" viewBox="0 0 24 24" fill="none" xmlns="http://www.w3.org/2000/svg">
<path d="M4.81124 24C4.04053 24 3.27319 23.7958 2.57989 23.3839C1.27744 22.6138 0.5 21.2644 0.5 19.7744V4.22472C0.5 2.73471 1.27744 1.38533 2.57989 0.615216C3.91601 -0.174992 5.53146 -0.205127 6.90123 0.531507L21.2754 8.30634C22.6687 9.05972 23.5 10.4392 23.5 11.9962C23.5 13.5532 22.6687 14.9327 21.2754 15.6861L6.90123 23.4643C6.24159 23.8225 5.52809 24 4.81124 24ZM4.81124 1.67664C4.3367 1.67664 3.86553 1.80388 3.4381 2.055C2.65057 2.52042 2.18276 3.33072 2.18276 4.22472V19.7777C2.18276 20.6718 2.65394 21.482 3.4381 21.9475C4.25929 22.433 5.25212 22.4531 6.0935 21.9977L20.4677 14.2229C21.309 13.7675 21.8139 12.9371 21.8139 12.0029C21.8139 11.0687 21.309 10.2383 20.4677 9.78296L6.09687 2.00478C5.69301 1.78379 5.25212 1.67664 4.81124 1.67664Z" fill="white"/>
</svg>
