<svg width="24" height="24" viewBox="0 0 24 24" fill="none" xmlns="http://www.w3.org/2000/svg">
<path d="M5.3017 24C3.04103 24 1.79849 24 0.897572 23.1024C0 22.2049 0 20.959 0 18.6983V5.3017C0 3.04103 0 1.79849 0.897572 0.897572C1.79514 0 3.04103 0 5.3017 0C7.56238 0 8.80491 0 9.70583 0.897572C10.6034 1.79514 10.6034 3.04103 10.6034 5.3017V18.6983C10.6034 20.959 10.6034 22.2015 9.70583 23.1024C8.80491 24 7.56238 24 5.3017 24ZM5.3017 1.67457C3.3525 1.67457 2.47502 1.69132 2.08317 2.08317C1.69132 2.47502 1.67457 3.3525 1.67457 5.3017V18.6983C1.67457 20.6475 1.69132 21.525 2.08317 21.9168C2.47502 22.3087 3.3525 22.3254 5.3017 22.3254C7.25091 22.3254 8.12838 22.3087 8.52024 21.9168C8.91209 21.525 8.92883 20.6475 8.92883 18.6983V5.3017C8.92883 3.3525 8.91209 2.47502 8.52024 2.08317C8.12838 1.69132 7.25091 1.67457 5.3017 1.67457Z" fill="white"/>
<path d="M18.6983 24C16.4376 24 15.1951 24 14.2941 23.1024C13.3932 22.2049 13.3966 20.959 13.3966 18.6983V5.3017C13.3966 3.04103 13.3966 1.79849 14.2941 0.897572C15.1917 0 16.4376 0 18.6983 0C20.959 0 22.2015 0 23.1024 0.897572C24 1.79514 24 3.04103 24 5.3017V18.6983C24 20.959 24 22.2015 23.1024 23.1024C22.2048 24.0033 20.959 24 18.6983 24ZM18.6983 1.67457C16.7491 1.67457 15.8716 1.69132 15.4797 2.08317C15.0879 2.47502 15.0712 3.3525 15.0712 5.3017V18.6983C15.0712 20.6475 15.0879 21.525 15.4797 21.9168C15.8716 22.3087 16.7491 22.3254 18.6983 22.3254C20.6475 22.3254 21.525 22.3087 21.9168 21.9168C22.3087 21.525 22.3254 20.6475 22.3254 18.6983V5.3017C22.3254 3.3525 22.3087 2.47502 21.9168 2.08317C21.525 1.69132 20.6475 1.67457 18.6983 1.67457Z" fill="white"/>
</svg>
