<svg width="27" height="24" viewBox="0 0 27 24" fill="none" xmlns="http://www.w3.org/2000/svg">
<path d="M24.3414 2.05691H1.02845C0.460747 2.05691 0 1.59616 0 1.02845C0 0.460747 0.460747 0 1.02845 0H24.3414C24.9091 0 25.3699 0.460747 25.3699 1.02845C25.3699 1.59616 24.9091 2.05691 24.3414 2.05691Z" fill="white"/>
<path d="M7.88618 15.7724H1.02845C0.460747 15.7724 0 15.3116 0 14.7439C0 14.1762 0.460747 13.7155 1.02845 13.7155H7.88618C8.45389 13.7155 8.91464 14.1762 8.91464 14.7439C8.91464 15.3116 8.45389 15.7724 7.88618 15.7724Z" fill="white"/>
<path d="M13.3699 8.91463H1.02845C0.460747 8.91463 0 8.45389 0 7.88618C0 7.31847 0.460747 6.85773 1.02845 6.85773H13.3699C13.9376 6.85773 14.3984 7.31847 14.3984 7.88618C14.3984 8.45389 13.9376 8.91463 13.3699 8.91463Z" fill="white"/>
<path d="M15.4268 23.9999C12.9708 23.9999 10.9715 21.9554 10.9715 19.4459C10.9715 16.9365 12.9708 14.892 15.4268 14.892C16.3113 14.892 17.134 15.1552 17.8251 15.6119V10.6342H19.882V19.4459C19.882 21.9554 17.8827 23.9999 15.4268 23.9999ZM15.4268 16.9447C14.1021 16.9447 13.0284 18.0637 13.0284 19.4418C13.0284 20.82 14.1063 21.9389 15.4268 21.9389C16.7514 21.9389 17.8251 20.82 17.8251 19.4418C17.8251 18.0678 16.7514 16.9447 15.4268 16.9447Z" fill="white"/>
<path d="M26.5506 6.45454C26.2791 5.64412 25.6661 5.12989 24.7734 4.96534C24.0082 4.82547 23.3212 5.15457 22.0789 5.75108L19.6764 6.90295C19.0922 7.17857 18.5369 7.47477 18.1954 8.0219C17.8581 8.56493 17.8293 9.19023 17.8293 9.8361C17.8293 11.2142 17.8293 11.9712 18.2859 12.6047C18.652 13.1066 19.1868 13.4439 19.7957 13.555C19.915 13.5756 20.0302 13.5879 20.1495 13.5879C20.7871 13.5879 21.4412 13.2752 22.4902 12.7692L24.8886 11.6174C25.4481 11.3623 26.0199 11.062 26.3737 10.4902C26.7563 9.86901 26.7398 9.14497 26.7439 8.43328C26.7439 7.68457 26.7439 7.03459 26.5506 6.45454ZM24.6829 8.42917C24.687 9.05036 24.6911 9.40826 24.0206 9.75382L21.5975 10.9139C21.0586 11.1731 20.4992 11.4405 20.24 11.5104C20.1001 11.5474 19.9602 11.4611 19.9356 11.3171C19.8862 11.0538 19.8862 10.4367 19.8862 9.8361C19.8862 9.58104 19.8944 9.41237 19.9026 9.3013C19.915 9.17377 19.9849 9.0627 20.096 8.99688C20.1906 8.93928 20.3346 8.86524 20.5609 8.75828L22.9716 7.60229C23.4117 7.39249 23.8807 7.16212 24.2098 7.06338C24.4196 7.00168 24.6335 7.14566 24.6541 7.36369C24.6829 7.664 24.6788 8.10007 24.6829 8.42917Z" fill="white"/>
</svg>
