<svg width="24" height="24" viewBox="0 0 24 24" fill="none" xmlns="http://www.w3.org/2000/svg">
<path d="M20.2604 24C19.6138 24 18.9707 23.8124 18.3911 23.4372L6.34475 15.6587C5.16892 14.9016 4.46543 13.5314 4.46543 12.0005C4.46543 10.4696 5.16892 9.09948 6.34475 8.34239L18.3911 0.560486C19.4665 -0.132951 20.7763 -0.18655 21.8885 0.419789C23.1949 1.12998 24.0056 2.5872 24.0056 4.22197V19.7824C24.0056 21.4172 23.1949 22.8711 21.8885 23.5846C21.3759 23.8627 20.8165 24 20.2604 24ZM7.25258 9.74936C6.55579 10.1983 6.1404 11.0391 6.1404 12.0005C6.1404 12.962 6.55579 13.8028 7.25258 14.2517L19.299 22.0302C20.0661 22.526 20.7495 22.2915 21.0878 22.1073C21.855 21.6885 22.3306 20.7975 22.3306 19.7791V4.22197C22.3306 3.20359 21.855 2.30915 21.0878 1.89376C20.7495 1.70952 20.0694 1.47502 19.299 1.97081L7.25258 9.74936Z" fill="white"/>
<path d="M0.837484 20.6534C0.375193 20.6534 0 20.2782 0 19.8159V4.18508C0 3.72279 0.375193 3.3476 0.837484 3.3476C1.29978 3.3476 1.67497 3.72279 1.67497 4.18508V19.8192C1.67497 20.2782 1.29978 20.6534 0.837484 20.6534Z" fill="white"/>
</svg>
