<svg width="20" height="24" viewBox="0 0 20 24" fill="none" xmlns="http://www.w3.org/2000/svg">
<path d="M19.9883 22.9976L18.5179 6.73365C18.4778 6.2895 18.103 5.94929 17.6541 5.94929H14.6218V4.59098C14.6218 2.05952 12.5483 0 9.99965 0C7.45111 0 5.37786 2.05952 5.37786 4.59098V5.94929H2.3435C1.89458 5.94929 1.51978 6.2895 1.47965 6.73365L0.00346801 23.0616C-0.0182729 23.3026 0.0629085 23.5414 0.227237 23.7199C0.391566 23.8983 0.623893 24 0.867321 24H19.1304C19.1311 24 19.132 24 19.1327 24C19.6118 24 20 23.6143 20 23.1386C19.9999 23.0907 19.996 23.0435 19.9883 22.9976ZM7.11251 4.59098C7.11251 3.0095 8.40771 1.72287 9.99977 1.72287C11.5919 1.72287 12.8873 3.0095 12.8873 4.59098V5.94929H7.11251V4.59098ZM1.81606 22.2772L3.13647 7.67216H5.37786V9.21263C5.37786 9.68837 5.76608 10.0741 6.24519 10.0741C6.72429 10.0741 7.11251 9.68837 7.11251 9.21263V7.67216H12.8873V9.21263C12.8873 9.68837 13.2755 10.0741 13.7546 10.0741C14.2337 10.0741 14.6219 9.68837 14.6219 9.21263V7.67216H16.8612L18.1816 22.2772H1.81606Z" fill="#C0797E"/>
</svg>
