<svg width="24" height="24" viewBox="0 0 24 24" fill="none" xmlns="http://www.w3.org/2000/svg">
<path d="M7.09473 13.0128C7.42797 13.013 7.69819 13.2816 7.69824 13.6124V20.8536H16.2012V13.6124C16.2012 13.2816 16.4714 13.0129 16.8047 13.0128H18.6162C18.9496 13.0128 19.2197 13.2814 19.2197 13.6124V20.8536H20.0752C20.8532 20.8536 21.4843 21.4798 21.4844 22.252V23.0508H23.3311C23.7004 23.051 23.9998 23.3483 24 23.7149C24 23.8721 23.8713 24.0001 23.7129 24.0001H0.287109C0.128718 24.0001 0 23.8721 0 23.7149C0.000216501 23.3483 0.299609 23.051 0.668945 23.0508H2.46582V22.252C2.46585 21.4798 3.09607 20.8537 3.87402 20.8536H4.67969V13.6124C4.67974 13.2814 4.94978 13.0128 5.2832 13.0128H7.09473ZM19.9248 10.2169C20.258 10.217 20.5281 10.4848 20.5283 10.8155V10.9161C20.5281 11.6882 19.8971 12.3135 19.1191 12.3135H4.88086C4.10292 12.3135 3.47188 11.6882 3.47168 10.9161V10.8155C3.47186 10.4848 3.74198 10.217 4.0752 10.2169H19.9248ZM18.3652 7.41998C18.6985 7.42023 18.9688 7.68877 18.9688 8.01959V8.1192C18.9687 8.89141 18.3376 9.51764 17.5596 9.51764H6.44043C5.66241 9.51764 5.03132 8.89141 5.03125 8.1192V8.01959C5.03125 7.68877 5.30152 7.42023 5.63477 7.41998H18.3652ZM16.9053 4.62311C17.2387 4.62311 17.5098 4.89174 17.5098 5.22272V5.32233C17.5098 6.0946 16.8786 6.72076 16.1006 6.72076H7.94922C7.17137 6.72051 6.54102 6.09444 6.54102 5.32233V5.22272C6.54102 4.89179 6.81113 4.62317 7.14453 4.62311H16.9053ZM11.8223 0.101624C11.9228 -0.0336604 12.127 -0.0336604 12.2275 0.101624L14.7363 3.47662C14.8583 3.64145 14.7394 3.87408 14.5332 3.87408H9.5166C9.31041 3.87394 9.1922 3.64141 9.31445 3.47662L11.8223 0.101624Z" fill="#C0797E"/>
</svg>
