<svg width="30" height="24" viewBox="0 0 30 24" fill="none" xmlns="http://www.w3.org/2000/svg">
<path d="M0.0484965 10.5624C0.153572 8.84486 0.210151 7.89918 0.739571 6.91713C1.23262 6.00378 2.12172 5.16317 3.0674 4.72671C4.07774 4.25791 5.14062 4.25791 7.07644 4.25791C8.98397 4.25791 8.8506 4.14879 10.3176 3.17886C12.0918 2.0109 13.3689 1.16626 14.4641 0.632797C15.3612 0.196329 16.5494 -0.252263 17.7739 0.16804C18.1417 0.293322 18.4893 0.471142 18.8085 0.693418C19.8674 1.43703 20.2028 2.65348 20.3806 3.63149C20.5948 4.8237 20.6676 6.34325 20.7646 8.44477C20.8413 10.1421 20.8818 11.3384 20.8818 12.0012C20.8818 12.664 20.8413 13.8602 20.7646 15.5576C20.6676 17.6631 20.5948 19.1827 20.3806 20.3709C20.2069 21.3489 19.8674 22.5613 18.8085 23.3089C18.4893 23.5312 18.1417 23.709 17.7739 23.8343C17.4304 23.9515 17.0869 24 16.7515 24C15.9028 24 15.1066 23.6807 14.4641 23.3695C13.3689 22.8361 12.0877 21.9914 10.3176 20.8235C8.96376 19.9303 8.70511 19.7444 7.07644 19.7444C5.14466 19.7444 4.07774 19.7444 3.0674 19.2756C2.12576 18.8392 1.23262 18.0026 0.739571 17.0852C0.210151 16.1072 0.153572 15.1615 0.0484965 13.4399C0.0161655 12.9105 0 12.4215 0 11.9931C0 11.5809 0.0161655 11.0919 0.0484965 10.5624ZM16.7596 2.03111C15.7331 2.03111 14.0397 3.14653 11.425 4.87219C9.56188 6.10077 9.19412 6.28263 7.0724 6.28263C5.37098 6.28263 4.51825 6.28263 3.91205 6.56149C3.3705 6.81205 2.79663 7.34956 2.51777 7.87493C2.20255 8.46093 2.15809 9.16009 2.06514 10.6837C2.03685 11.1727 2.02069 11.6172 2.02069 12.0093C2.02069 12.4013 2.03685 12.8418 2.06514 13.3348C2.15809 14.8584 2.19851 15.5535 2.51777 16.1436C2.80067 16.669 3.37454 17.2065 3.91205 17.457C4.51825 17.7359 5.37098 17.7359 7.0724 17.7359C9.09713 17.7359 9.63867 17.9703 11.425 19.1463C14.0397 20.8679 15.7331 21.9874 16.7596 21.9874C17.091 21.9874 17.1718 21.9874 17.6446 21.6641C18.4893 21.0862 18.5822 18.9685 18.7439 15.4727C18.8207 13.8077 18.8611 12.6438 18.8611 12.0093C18.8611 11.3748 18.8207 10.2108 18.7439 8.5458C18.5822 5.05406 18.4852 2.94446 17.6446 2.35442C17.487 2.24126 17.1192 2.03111 16.7596 2.03111Z" fill="white"/>
<path d="M28.629 15.7152C28.3704 15.7152 28.1118 15.6182 27.9137 15.4201L25.9335 13.4399L23.9532 15.4201C23.5571 15.8162 22.9186 15.8162 22.5225 15.4201C22.1265 15.0241 22.1265 14.3856 22.5225 13.9895L24.5028 12.0092L22.5225 10.029C22.1265 9.6329 22.1265 8.99436 22.5225 8.59831C22.9186 8.20226 23.5571 8.20226 23.9532 8.59831L25.9335 10.5786L27.9137 8.59831C28.3098 8.20226 28.9483 8.20226 29.3444 8.59831C29.7404 8.99436 29.7404 9.6329 29.3444 10.029L27.3641 12.0092L29.3444 13.9895C29.7404 14.3856 29.7404 15.0241 29.3444 15.4201C29.1463 15.6141 28.8877 15.7152 28.629 15.7152Z" fill="white"/>
</svg>
